<svg version="1" xmlns="http://www.w3.org/2000/svg" width="184" height="184" viewBox="0 0 138.000000 138.000000"><path d="M12.5 45.1c-5.4 2.4-6.9 3.8-9.3 8.3-1.4 2.7-2 5.1-1.7 8.2C1.9 66.5 5.4 73 7.6 73c.8 0 1.4.4 1.4.8 0 1.6 6 3 25 5.7 4.2.5 6 1.6 6 3.6 0 2.6-3 3.9-9.3 3.9-9.1 0-19-4.1-24.1-10.1l-3.1-3.7-.1 9.9c-.1 5.4.3 9.9.8 9.9s2.2-.7 3.8-1.5c2.7-1.4 3.5-1.4 9.2.6 4.4 1.5 8.7 2.2 14.3 2.2 7 0 8.7-.3 12.7-2.7 3-1.7 5.3-4.1 6.6-6.6 1.7-3.4 1.9-5.6 1.3-11.7 0-.6-1.3-2.6-2.8-4.4-3-3.6-9.1-6.6-14.6-7.3-9.2-1.1-19.4-3-21-3.8-2.7-1.4-2.1-4.4 1.2-5.8 6-2.5 23 1.9 27.7 7.1 3.2 3.6 4 2.3 4-6.1 0-4.4-.4-8-.8-8-.5 0-2.2.7-3.8 1.5-2.6 1.3-3.4 1.3-6.7 0-8.6-3.3-17.4-3.9-22.8-1.4zM52.7 49.9c2.9 3 8 12 8.9 15.6.1.5 1.8 5 3.8 9.8l3.6 8.9-3 4.3-2.9 4.3 13.9-.1c10.9 0 14-.3 14-1.4 0-.7-.3-1.3-.7-1.3-.5 0-1.5-1.3-2.4-2.9-1.6-2.7-1.6-3.3.5-9.5 1.2-3.6 2.5-6.9 2.9-7.3.4-.3.7-1.4.7-2.4 0-3.4 1.9-3 3.9.8 1 2.1 2 4.2 2.1 4.8.5 2.2 1.2 4.1 2.5 7 1.2 2.8 1 3.3-2.1 7.5l-3.3 4.6 13.5.1c14.6.1 15.3-.2 11-5.2-2.8-3.2-2.7-3.4 2.9-17 2-5 4-10 4.4-11.2.3-1.2 2.9-4.6 5.8-7.5l5.1-5.4H114.1l2.9 3.5 2.8 3.6-3.5 8.7c-2.6 6.4-3.8 8.5-4.9 8.1-.8-.3-1.3-.7-1.1-1 .3-.2-.8-3-2.3-6.1-4.3-8.9-4.3-9.3-1-13.1 1.7-1.8 3-3.5 3-3.6 0-.1-6.5-.2-14.5-.2H81l1.5 2.4c4.8 7.5 4.7 6.2 1.5 14.7-1.6 4.3-3.2 8.1-3.5 8.4-.4.4-1.5-.4-2.5-1.8s-1.7-2.6-1.5-2.8c.2-.2-.8-2.7-2.1-5.5-2.4-5.2-3.1-8.7-1.6-8.7.7 0 4.2-5.2 4.2-6.3 0-.3-6.3-.4-13.9-.4l-13.9.1 3.5 3.5z"/></svg>